<svg width="165" height="24" xmlns="http://www.w3.org/2000/svg"><g fill="none" fill-rule="evenodd"><g><circle fill="#F79319" cx="12" cy="12" r="12"/><path d="M17.498 10.875c.232-1.549-.947-2.38-2.56-2.936l.524-2.098-1.277-.318-.509 2.042c-.336-.083-.68-.162-1.023-.24l.513-2.056-1.276-.318-.523 2.096a39.785 39.785 0 0 1-.816-.19l.002-.008-1.76-.44-.34 1.364s.947.217.927.23c.517.13.61.472.595.743l-.596 2.39c.036.01.082.022.133.042l-.135-.033-.835 3.347c-.063.157-.224.393-.585.303.012.02-.928-.23-.928-.23l-.634 1.46 1.661.414c.31.078.612.16.91.235l-.528 2.122 1.275.318.524-2.099c.348.095.686.182 1.017.264l-.52 2.09 1.275.317.53-2.117c2.176.412 3.813.246 4.502-1.723.555-1.586-.028-2.5-1.173-3.097.834-.192 1.463-.74 1.63-1.874Zm-2.917 4.09c-.394 1.586-3.064.73-3.93.514l.702-2.81c.865.215 3.64.643 3.228 2.296Zm.395-4.113c-.36 1.442-2.582.71-3.303.53l.636-2.55c.72.18 3.042.515 2.667 2.02Z" fill="#FFF" fill-rule="nonzero"/></g><g fill="#FFF" fill-rule="nonzero"><path d="M38.488 21.216c-.96 0-1.944-.04-2.952-.12a20.873 20.873 0 0 1-2.736-.384l3.84-16.08a22.826 22.826 0 0 1 2.868-.36c1-.064 1.916-.096 2.748-.096.96 0 1.788.1 2.484.3.696.2 1.264.468 1.704.804a3.23 3.23 0 0 1 1.308 2.64c0 .352-.036.72-.108 1.104a3.626 3.626 0 0 1-.432 1.14 4.349 4.349 0 0 1-.888 1.068c-.376.336-.868.64-1.476.912.72.32 1.248.756 1.584 1.308.336.552.504 1.164.504 1.836 0 .768-.152 1.508-.456 2.22-.304.712-.792 1.344-1.464 1.896-.672.552-1.544.992-2.616 1.32-1.072.328-2.376.492-3.912.492Zm-.336-7.488-1.032 4.32c.256.048.58.084.972.108.392.024.756.036 1.092.036.48 0 .956-.036 1.428-.108a4.157 4.157 0 0 0 1.272-.396c.376-.192.684-.456.924-.792s.36-.768.36-1.296c0-.224-.044-.448-.132-.672a1.607 1.607 0 0 0-.42-.6 2.209 2.209 0 0 0-.756-.432c-.312-.112-.684-.168-1.116-.168h-2.592Zm.696-2.808H41.2c.96 0 1.676-.208 2.148-.624.472-.416.708-.912.708-1.488 0-.304-.068-.564-.204-.78a1.518 1.518 0 0 0-.54-.516 2.497 2.497 0 0 0-.768-.276 4.642 4.642 0 0 0-.888-.084c-.336 0-.696.012-1.08.036a9.213 9.213 0 0 0-.864.084l-.864 3.648ZM52.024 21h-3.552l3-12.624h3.576L52.024 21Zm1.728-14.16c-.496 0-.944-.148-1.344-.444-.4-.296-.6-.748-.6-1.356 0-.336.068-.652.204-.948a2.512 2.512 0 0 1 1.32-1.284c.296-.128.612-.192.948-.192.496 0 .944.148 1.344.444.4.296.6.748.6 1.356 0 .336-.068.652-.204.948a2.512 2.512 0 0 1-1.32 1.284 2.363 2.363 0 0 1-.948.192ZM58.696 5.232l3.72-.576-.912 3.72h3.984l-.72 2.928h-3.96l-1.056 4.416a5.837 5.837 0 0 0-.18 1.032c-.024.32.016.596.12.828.104.232.284.412.54.54.256.128.608.192 1.056.192.384 0 .756-.036 1.116-.108.36-.072.724-.172 1.092-.3l.264 2.736c-.48.176-1 .328-1.56.456s-1.224.192-1.992.192c-1.104 0-1.96-.164-2.568-.492-.608-.328-1.04-.776-1.296-1.344-.256-.568-.368-1.22-.336-1.956.032-.736.144-1.512.336-2.328l2.352-9.936ZM65.608 15.96c0-1.088.176-2.112.528-3.072.352-.96.856-1.8 1.512-2.52a7.07 7.07 0 0 1 2.388-1.704c.936-.416 1.98-.624 3.132-.624.72 0 1.364.068 1.932.204a7.65 7.65 0 0 1 1.548.54l-1.224 2.784a12.14 12.14 0 0 0-.996-.348c-.344-.104-.764-.156-1.26-.156-1.2 0-2.144.404-2.832 1.212-.688.808-1.032 1.908-1.032 3.3 0 .816.176 1.476.528 1.98.352.504 1 .756 1.944.756a6.521 6.521 0 0 0 2.496-.504l.264 2.856c-.448.176-.94.332-1.476.468s-1.188.204-1.956.204c-.992 0-1.832-.144-2.52-.432-.688-.288-1.256-.676-1.704-1.164a4.398 4.398 0 0 1-.972-1.716c-.2-.656-.3-1.344-.3-2.064ZM81.52 21.336c-.848 0-1.584-.128-2.208-.384a4.09 4.09 0 0 1-1.548-1.08 4.665 4.665 0 0 1-.924-1.644 6.69 6.69 0 0 1-.312-2.1c0-.96.156-1.92.468-2.88a8.242 8.242 0 0 1 1.38-2.592 7.375 7.375 0 0 1 2.232-1.884c.88-.488 1.888-.732 3.024-.732.832 0 1.564.128 2.196.384a4.073 4.073 0 0 1 1.56 1.08c.408.464.716 1.012.924 1.644a6.69 6.69 0 0 1 .312 2.1c0 .96-.152 1.92-.456 2.88a8.323 8.323 0 0 1-1.344 2.592 7.052 7.052 0 0 1-2.22 1.884c-.888.488-1.916.732-3.084.732Zm1.776-10.272c-.528 0-.992.152-1.392.456a3.91 3.91 0 0 0-1.008 1.152 5.683 5.683 0 0 0-.612 1.524 6.577 6.577 0 0 0-.204 1.572c0 .816.128 1.444.384 1.884.256.44.72.66 1.392.66.528 0 .992-.152 1.392-.456a3.91 3.91 0 0 0 1.008-1.152c.272-.464.476-.972.612-1.524a6.577 6.577 0 0 0 .204-1.572c0-.816-.128-1.444-.384-1.884-.256-.44-.72-.66-1.392-.66ZM93.136 21h-3.552l3-12.624h3.576L93.136 21Zm1.728-14.16c-.496 0-.944-.148-1.344-.444-.4-.296-.6-.748-.6-1.356 0-.336.068-.652.204-.948a2.512 2.512 0 0 1 1.32-1.284c.296-.128.612-.192.948-.192.496 0 .944.148 1.344.444.4.296.6.748.6 1.356 0 .336-.068.652-.204.948a2.512 2.512 0 0 1-1.32 1.284 2.363 2.363 0 0 1-.948.192ZM99.28 8.952c.272-.08.572-.172.9-.276.328-.104.696-.2 1.104-.288.408-.088.864-.16 1.368-.216a15.68 15.68 0 0 1 1.716-.084c1.888 0 3.184.544 3.888 1.632.704 1.088.824 2.576.36 4.464L106.984 21h-3.576l1.584-6.672c.096-.416.172-.82.228-1.212a2.94 2.94 0 0 0-.012-1.032 1.22 1.22 0 0 0-.444-.72c-.232-.184-.588-.276-1.068-.276-.464 0-.936.048-1.416.144L99.952 21h-3.576L99.28 8.952ZM120.232 18c.176.016.356.028.54.036.184.008.436.012.756.012 1.04 0 1.98-.16 2.82-.48a5.83 5.83 0 0 0 2.136-1.38c.584-.6 1.036-1.336 1.356-2.208.32-.872.48-1.852.48-2.94 0-.56-.072-1.068-.216-1.524a2.85 2.85 0 0 0-.708-1.176c-.328-.328-.752-.58-1.272-.756-.52-.176-1.148-.264-1.884-.264-.48 0-.968.024-1.464.072L120.232 18Zm11.928-7.152c0 1.616-.264 3.064-.792 4.344a8.87 8.87 0 0 1-2.268 3.252c-.984.888-2.18 1.572-3.588 2.052s-3 .72-4.776.72c-.672 0-1.448-.04-2.328-.12-.88-.08-1.728-.208-2.544-.384l3.864-16.056c.912-.176 1.788-.3 2.628-.372.84-.072 1.596-.108 2.268-.108 1.184 0 2.244.16 3.18.48.936.32 1.728.776 2.376 1.368a5.834 5.834 0 0 1 1.476 2.112c.336.816.504 1.72.504 2.712ZM133.096 21l3.984-16.632h10.872l-.768 3.072h-7.128l-.768 3.36h6.288l-.744 3.024h-6.288l-.96 4.08h7.68L144.496 21zM157.48 21a94.717 94.717 0 0 0-1.14-3.3c-.168-.456-.34-.888-.516-1.296a51.44 51.44 0 0 0-.576-1.284L150.424 21h-4.272l7.56-9.048-3.384-7.584h4.128l1.992 5.136c.72-.864 1.416-1.74 2.088-2.628.672-.888 1.288-1.724 1.848-2.508h4.104a96.434 96.434 0 0 1-3.084 4.116 87.514 87.514 0 0 1-3.3 3.924c.336.752.652 1.464.948 2.136.296.672.58 1.348.852 2.028.272.68.536 1.38.792 2.1.256.72.52 1.496.792 2.328h-4.008Z"/></g></g></svg>